<?xml version="1.0" encoding="UTF-8"?>
<svg width="20px" height="16px" viewBox="0 0 20 16" version="1.1" xmlns="http://www.w3.org/2000/svg" xmlns:xlink="http://www.w3.org/1999/xlink">
    <title>Cam Off</title>
    <g id="Page-1" stroke="none" stroke-width="1" fill="none" fill-rule="evenodd">
        <g id="Artboard-Copy" transform="translate(-58.000000, -89.000000)">
            <g id="Cam-Off" transform="translate(58.000000, 90.000000)">
                <g id="Group-2" transform="translate(0.000000, 0.790798)" fill="#FB6401" fill-rule="nonzero">
                    <g id="Group">
                        <path d="M13.1818182,0 C14.1859723,0 15,0.728485831 15,1.62711864 L15,3.83308475 L18.6599092,2.06948831 C19.1019736,1.85646749 19.6533027,2.00448535 19.8913374,2.40009545 C19.9626632,2.5186379 20,2.65116856 20,2.78580378 L20,8.85312488 C20,9.30244129 19.5929861,9.6666842 19.0909091,9.6666842 C18.9497772,9.6666842 18.8105835,9.63727804 18.6843513,9.58079447 L15,7.93220339 L15,10.3728814 C15,11.2715142 14.1859723,12 13.1818182,12 L1.81818182,12 C0.814027727,12 0,11.2715142 0,10.3728814 L0,1.62711864 C0,0.728485831 0.814027727,0 1.81818182,0 L13.1818182,0 Z M13.1818182,1.01694915 L1.81818182,1.01694915 C1.44162403,1.01694915 1.13636364,1.29013134 1.13636364,1.62711864 L1.13636364,10.3728814 C1.13636364,10.7098687 1.44162403,10.9830508 1.81818182,10.9830508 L13.1818182,10.9830508 C13.558376,10.9830508 13.8636364,10.7098687 13.8636364,10.3728814 L13.8636364,1.62711864 C13.8636364,1.29013134 13.558376,1.01694915 13.1818182,1.01694915 Z M18.8636364,3.12632254 L15.2272727,4.87860415 L15.2272727,6.8969146 L18.8636364,8.52403324 L18.8636364,3.12632254 Z M4.09090909,2.84745763 C4.71850539,2.84745763 5.22727273,3.30276128 5.22727273,3.86440678 C5.22727273,4.42605228 4.71850539,4.88135593 4.09090909,4.88135593 C3.4633128,4.88135593 2.95454545,4.42605228 2.95454545,3.86440678 C2.95454545,3.30276128 3.4633128,2.84745763 4.09090909,2.84745763 Z" id="Shape"></path>
                    </g>
                </g>
                <line x1="1.82842638" y1="-2.22932783e-13" x2="15.8635611" y2="13.0290643" id="Path-2" stroke="#FB6401" stroke-linecap="round"></line>
                <line x1="1.13636364" y1="0.709117009" x2="15.2272727" y2="13.7907979" id="Path-2" stroke="#FFFFFF" stroke-linecap="round"></line>
            </g>
        </g>
    </g>
</svg>