<?xml version="1.0" encoding="UTF-8"?>
<svg width="12px" height="20px" viewBox="0 0 12 20" version="1.1" xmlns="http://www.w3.org/2000/svg" xmlns:xlink="http://www.w3.org/1999/xlink">
    <title>Mic On</title>
    <g id="Page-1" stroke="none" stroke-width="1" fill="none" fill-rule="evenodd">
        <g id="Artboard-Copy" transform="translate(-186.000000, -27.000000)">
            <g id="Mic-On" transform="translate(186.000000, 27.000000)">
                <path d="M6.00000425,0.0903098182 C3.93115175,0.0903098182 2.25000425,1.76709319 2.25000425,3.83056956 L2.25000425,9.81499013 C2.25000425,11.8784665 3.93115175,13.5552499 6.00000425,13.5552499 C8.068858,13.5552499 9.75000425,11.8784665 9.75000425,9.81499013 L9.75000425,3.83056956 C9.75000425,1.76709319 8.068858,0.0903098182 6.00000425,0.0903098182 Z M6.00000425,1.08771242 C7.532153,1.08771242 8.75000425,2.30239917 8.75000425,3.83056956 L8.75000425,9.81499013 C8.75000425,11.3431605 7.532153,12.5578473 6.00000425,12.5578473 C4.46785675,12.5578473 3.25000425,11.3431605 3.25000425,9.81499013 L3.25000425,3.83056956 C3.25000425,2.30239917 4.46785675,1.08771242 6.00000425,1.08771242 Z M0.50781675,8.31396457 C0.24080675,8.30977995 -0.00417325,8.55419345 -4.84161388e-05,8.82049995 L-4.84161388e-05,9.82279481 C-4.84161388e-05,12.9625683 2.41748925,15.532027 5.50000425,15.7838213 L5.50000425,18.0435616 L3.50000425,18.0435616 C3.22386175,18.0435616 3.00000425,18.2668301 3.00000425,18.5422629 C3.00000425,18.8176956 3.22386175,19.0409642 3.50000425,19.0409642 L8.5000055,19.0409642 C8.776148,19.0409642 9.0000055,18.8176956 9.0000055,18.5422629 C9.0000055,18.2668301 8.776148,18.0435616 8.5000055,18.0435616 L6.50000425,18.0435616 L6.50000425,15.7838213 C9.5825205,15.532027 12.0000484,12.9625683 12.0000484,9.82279481 L12.0000484,8.82049995 C12.0037305,8.55703605 11.764188,8.31469216 11.5000055,8.31469216 C11.235823,8.31469216 10.9962705,8.55703605 11.0000055,8.82049995 L11.0000055,9.82279481 C11.0000055,12.5942026 8.778653,14.8097829 6.00000425,14.8097829 C3.22135425,14.8097829 1.00000425,12.5942026 1.00000425,9.82279481 L1.00000425,8.82049995 C1.00410425,8.55937995 0.76961675,8.31808332 0.50781675,8.31396457 Z" id="Shape" fill="#808080" fill-rule="nonzero"></path>
                <path d="M3.5862997,8.4 C5.37203745,8.4 6.68762925,8.4 8.4148253,8.4 L8.4148253,9.82541033 C8.4148253,11.1508937 7.3403087,12.2254103 6.0148253,12.2254103 L5.9862997,12.2254103 C4.6608163,12.2254103 3.5862997,11.1508937 3.5862997,9.82541033 L3.5862997,8.4 L3.5862997,8.4 Z" id="Rectangle" fill="#00FF02"></path>
            </g>
        </g>
    </g>
</svg>